# xmcd CD database file
#
# Track frame offsets:
#	150
#	17443
#	44495
#	62930
#	85752
#	115692
#	128214
#	152837
#	174330
#	210730
#	238661
#
# Disc length: 3348 seconds
#
# Revision: 0
# Processed by: cddbd v1.5.2PL0 Copyright (c) Steve Scherf et al.
# Submitted via: CDex 1.99.1
#
DISCID=8c0d120b
DTITLE=Manlio Maresca - Hardcore chamber music
DYEAR=2016
DGENRE=Jazz
TTITLE0=Craving Rag
TTITLE1=Esercizi di Memoria
TTITLE2=Hardcore Chamber Music
TTITLE3=Domosinth
TTITLE4=Una Bella Voce
TTITLE5=Authing Out
TTITLE6=If I Were a Bello
TTITLE7=Speedball
TTITLE8=Nodo in Gola
TTITLE9=Isc
TTITLE10=Esercizi di Memoria
EXTD=YEAR: 2016
EXTT0=
EXTT1=
EXTT2=
EXTT3=
EXTT4=
EXTT5=
EXTT6=
EXTT7=
EXTT8=
EXTT9=
EXTT10=
PLAYORDER=
